<svg width="54" height="42" viewBox="0 0 54 42" fill="none" xmlns="http://www.w3.org/2000/svg">
<path d="M24 21C24 26.4876 22.619 31.3603 20.4919 34.7965C18.3457 38.2635 15.6421 40 13 40C10.3579 40 7.65433 38.2635 5.50814 34.7965C3.38097 31.3603 2 26.4876 2 21C2 15.5124 3.38097 10.6397 5.50814 7.20347C7.65433 3.73654 10.3579 2 13 2C15.6421 2 18.3457 3.73654 20.4919 7.20347C22.619 10.6397 24 15.5124 24 21Z" stroke="black" stroke-width="4"/>
<path d="M52 21C52 26.4876 50.619 31.3603 48.4919 34.7965C46.3457 38.2635 43.6421 40 41 40C38.3579 40 35.6543 38.2635 33.5081 34.7965C31.381 31.3603 30 26.4876 30 21C30 15.5124 31.381 10.6397 33.5081 7.20347C35.6543 3.73654 38.3579 2 41 2C43.6421 2 46.3457 3.73654 48.4919 7.20347C50.619 10.6397 52 15.5124 52 21Z" stroke="black" stroke-width="4"/>
<path fill-rule="evenodd" clip-rule="evenodd" d="M10 27C13.3137 27 16 24.3137 16 21C16 17.6863 13.3137 15 10 15C6.68629 15 4 17.6863 4 21C4 24.3137 6.68629 27 10 27ZM10 25C12.2091 25 14 23.2091 14 21C14 18.7909 12.2091 17 10 17C7.79086 17 6 18.7909 6 21C6 23.2091 7.79086 25 10 25Z" fill="black"/>
<circle cx="6.5" cy="18.5" r="1.5" fill="white"/>
<path fill-rule="evenodd" clip-rule="evenodd" d="M38 27C41.3137 27 44 24.3137 44 21C44 17.6863 41.3137 15 38 15C34.6863 15 32 17.6863 32 21C32 24.3137 34.6863 27 38 27ZM38 25C40.2091 25 42 23.2091 42 21C42 18.7909 40.2091 17 38 17C35.7909 17 34 18.7909 34 21C34 23.2091 35.7909 25 38 25Z" fill="black"/>
<circle cx="34.5" cy="18.5" r="1.5" fill="white"/>
</svg>
